<?xml version="1.0" standalone="no"?>
<!DOCTYPE svg PUBLIC "-//W3C//DTD SVG 20010904//EN"
 "http://www.w3.org/TR/2001/REC-SVG-20010904/DTD/svg10.dtd">
<svg version="1.0" xmlns="http://www.w3.org/2000/svg"
 width="500.000000pt" height="500.000000pt" viewBox="0 0 500.000000 500.000000"
 preserveAspectRatio="xMidYMid meet">

<g transform="translate(0.000000,500.000000) scale(0.100000,-0.100000)"
fill="#000000" stroke="none">
<path d="M1863 3441 c-216 -59 -386 -221 -457 -436 -73 -225 -10 -535 161
-794 114 -172 394 -423 608 -545 194 -110 368 -139 544 -90 57 16 215 92 264
126 27 19 27 19 90 -6 175 -70 381 -108 452 -85 108 37 51 86 -601 515 -170
111 -310 202 -311 200 -1 -1 -11 -112 -23 -246 -23 -268 -24 -275 -46 -284
-24 -9 -90 30 -102 61 -8 21 -52 335 -52 374 0 3 -20 20 -45 39 -48 36 -54 50
-29 71 13 10 19 10 36 0 11 -7 21 -11 23 -9 2 2 -2 44 -8 94 l-12 90 -70 61
c-99 85 -259 254 -289 305 -49 85 -40 128 27 128 66 -1 235 -88 408 -211 l96
-69 101 12 c94 11 100 13 86 29 -12 14 -13 22 -4 38 14 28 24 27 70 -11 l40
-31 180 21 c197 24 214 22 250 -27 40 -57 33 -62 -237 -152 l-245 -81 28 -28
c50 -48 565 -523 617 -570 28 -25 48 -38 45 -30 -3 8 -18 43 -33 77 l-27 62
63 80 c166 206 245 402 256 631 6 144 -11 233 -68 350 -34 69 -58 101 -128
170 -95 95 -183 145 -302 174 -83 20 -237 21 -314 1 -100 -25 -215 -88 -291
-158 l-68 -64 -55 54 c-64 64 -161 123 -251 154 -93 32 -277 37 -377 10z
m1376 -1633 c140 -79 175 -119 115 -134 -43 -11 -275 57 -276 81 0 7 90 83
101 84 2 1 29 -13 60 -31z"/>
</g>
</svg>
